<?xml version="1.0" encoding="UTF-8"?>
<svg xmlns="http://www.w3.org/2000/svg" xmlns:xlink="http://www.w3.org/1999/xlink" width="854" height="480" viewBox="0 0 854 480">
<defs>
<g>
<g id="glyph-0-0">
<path d="M 0.988281 -1.75 L 0.988281 -1.613281 L 0.601562 -1.613281 L 0.597656 -0.519531 C 0.597656 -0.425781 0.605469 -0.351562 0.621094 -0.300781 C 0.652344 -0.214844 0.710938 -0.171875 0.800781 -0.171875 C 0.847656 -0.171875 0.886719 -0.183594 0.921875 -0.203125 C 0.953125 -0.226562 0.992188 -0.257812 1.035156 -0.304688 L 1.085938 -0.265625 L 1.042969 -0.207031 C 0.976562 -0.117188 0.90625 -0.0546875 0.832031 -0.0195312 C 0.757812 0.015625 0.6875 0.0351562 0.621094 0.0351562 C 0.472656 0.0351562 0.371094 -0.03125 0.316406 -0.164062 C 0.289062 -0.234375 0.273438 -0.335938 0.273438 -0.464844 L 0.273438 -1.613281 L 0.0664062 -1.613281 C 0.0585938 -1.617188 0.0546875 -1.621094 0.0507812 -1.625 C 0.046875 -1.628906 0.046875 -1.632812 0.046875 -1.640625 C 0.046875 -1.652344 0.0507812 -1.664062 0.0546875 -1.671875 C 0.0625 -1.679688 0.078125 -1.695312 0.109375 -1.71875 C 0.195312 -1.789062 0.261719 -1.847656 0.300781 -1.894531 C 0.339844 -1.941406 0.429688 -2.058594 0.570312 -2.25 C 0.585938 -2.25 0.597656 -2.25 0.601562 -2.246094 C 0.605469 -2.242188 0.605469 -2.234375 0.605469 -2.21875 L 0.605469 -1.75 Z "/>
</g>
<g id="glyph-0-1">
<path d="M 0.0351562 -0.0546875 C 0.136719 -0.0664062 0.207031 -0.09375 0.238281 -0.128906 C 0.269531 -0.167969 0.285156 -0.253906 0.285156 -0.394531 L 0.285156 -2.21875 C 0.285156 -2.289062 0.277344 -2.339844 0.257812 -2.375 C 0.242188 -2.410156 0.195312 -2.425781 0.125 -2.425781 C 0.109375 -2.425781 0.0976562 -2.425781 0.0859375 -2.421875 C 0.0703125 -2.421875 0.0546875 -2.417969 0.0390625 -2.414062 L 0.0390625 -2.484375 C 0.09375 -2.5 0.164062 -2.519531 0.246094 -2.542969 C 0.328125 -2.566406 0.382812 -2.585938 0.414062 -2.59375 L 0.597656 -2.652344 L 0.601562 -2.636719 L 0.601562 -1.472656 C 0.683594 -1.5625 0.753906 -1.628906 0.816406 -1.671875 C 0.925781 -1.75 1.046875 -1.789062 1.175781 -1.789062 C 1.378906 -1.789062 1.519531 -1.699219 1.59375 -1.527344 C 1.636719 -1.4375 1.65625 -1.316406 1.65625 -1.171875 L 1.65625 -0.394531 C 1.65625 -0.261719 1.671875 -0.171875 1.703125 -0.132812 C 1.734375 -0.09375 1.796875 -0.0664062 1.894531 -0.0546875 L 1.894531 0 L 1.070312 0 L 1.070312 -0.0546875 C 1.179688 -0.0703125 1.253906 -0.09375 1.285156 -0.132812 C 1.316406 -0.167969 1.332031 -0.253906 1.332031 -0.394531 L 1.332031 -1.164062 C 1.332031 -1.285156 1.3125 -1.386719 1.269531 -1.460938 C 1.226562 -1.539062 1.152344 -1.578125 1.035156 -1.578125 C 0.9375 -1.578125 0.84375 -1.539062 0.75 -1.46875 C 0.65625 -1.398438 0.613281 -1.351562 0.613281 -1.332031 L 0.613281 -0.394531 C 0.613281 -0.253906 0.628906 -0.164062 0.660156 -0.128906 C 0.695312 -0.09375 0.765625 -0.0703125 0.871094 -0.0546875 L 0.871094 0 L 0.0351562 0 Z "/>
</g>
<g id="glyph-0-2">
<path d="M 0.890625 -1.78125 C 1.070312 -1.78125 1.226562 -1.71875 1.359375 -1.597656 C 1.492188 -1.472656 1.5625 -1.296875 1.5625 -1.070312 L 0.355469 -1.070312 C 0.367188 -0.777344 0.433594 -0.5625 0.554688 -0.429688 C 0.675781 -0.296875 0.816406 -0.226562 0.980469 -0.226562 C 1.113281 -0.226562 1.226562 -0.261719 1.316406 -0.332031 C 1.410156 -0.402344 1.492188 -0.5 1.570312 -0.628906 L 1.636719 -0.605469 C 1.585938 -0.445312 1.488281 -0.296875 1.34375 -0.160156 C 1.203125 -0.0234375 1.027344 0.046875 0.824219 0.046875 C 0.585938 0.046875 0.402344 -0.0429688 0.269531 -0.222656 C 0.140625 -0.402344 0.0742188 -0.609375 0.0742188 -0.84375 C 0.0742188 -1.097656 0.152344 -1.320312 0.300781 -1.503906 C 0.453125 -1.6875 0.648438 -1.78125 0.890625 -1.78125 Z M 0.78125 -1.644531 C 0.636719 -1.644531 0.527344 -1.578125 0.449219 -1.449219 C 0.410156 -1.382812 0.378906 -1.296875 0.363281 -1.191406 L 1.164062 -1.191406 C 1.148438 -1.320312 1.125 -1.414062 1.09375 -1.476562 C 1.03125 -1.585938 0.925781 -1.644531 0.78125 -1.644531 Z "/>
</g>
<g id="glyph-0-3">
<path d="M 1.113281 -1.050781 C 0.96875 -1.003906 0.847656 -0.949219 0.753906 -0.894531 C 0.570312 -0.78125 0.480469 -0.652344 0.480469 -0.507812 C 0.480469 -0.394531 0.519531 -0.308594 0.59375 -0.253906 C 0.644531 -0.21875 0.699219 -0.203125 0.757812 -0.203125 C 0.84375 -0.203125 0.921875 -0.226562 1 -0.273438 C 1.078125 -0.320312 1.113281 -0.378906 1.113281 -0.449219 Z M 0.140625 -0.378906 C 0.140625 -0.5625 0.234375 -0.714844 0.417969 -0.835938 C 0.535156 -0.914062 0.765625 -1.015625 1.113281 -1.148438 L 1.113281 -1.308594 C 1.113281 -1.4375 1.101562 -1.527344 1.078125 -1.578125 C 1.035156 -1.664062 0.945312 -1.707031 0.808594 -1.707031 C 0.746094 -1.707031 0.683594 -1.6875 0.625 -1.65625 C 0.566406 -1.621094 0.539062 -1.574219 0.539062 -1.515625 C 0.539062 -1.5 0.539062 -1.476562 0.546875 -1.4375 C 0.554688 -1.402344 0.554688 -1.378906 0.554688 -1.371094 C 0.554688 -1.300781 0.53125 -1.25 0.484375 -1.222656 C 0.460938 -1.207031 0.429688 -1.195312 0.390625 -1.195312 C 0.335938 -1.195312 0.289062 -1.214844 0.261719 -1.253906 C 0.230469 -1.289062 0.214844 -1.332031 0.214844 -1.375 C 0.214844 -1.464844 0.269531 -1.558594 0.378906 -1.65625 C 0.488281 -1.753906 0.648438 -1.800781 0.859375 -1.800781 C 1.105469 -1.800781 1.273438 -1.722656 1.359375 -1.5625 C 1.40625 -1.472656 1.429688 -1.347656 1.429688 -1.179688 L 1.429688 -0.417969 C 1.429688 -0.34375 1.433594 -0.292969 1.445312 -0.265625 C 1.460938 -0.214844 1.496094 -0.191406 1.546875 -0.191406 C 1.578125 -0.191406 1.601562 -0.195312 1.621094 -0.207031 C 1.640625 -0.214844 1.671875 -0.234375 1.71875 -0.269531 L 1.71875 -0.171875 C 1.679688 -0.121094 1.632812 -0.0820312 1.585938 -0.0507812 C 1.515625 0 1.445312 0.0234375 1.371094 0.0234375 C 1.285156 0.0234375 1.222656 -0.00390625 1.183594 -0.0625 C 1.144531 -0.117188 1.125 -0.183594 1.121094 -0.261719 C 1.023438 -0.175781 0.941406 -0.113281 0.875 -0.0742188 C 0.757812 -0.00390625 0.648438 0.0273438 0.546875 0.0273438 C 0.4375 0.0273438 0.34375 -0.0117188 0.261719 -0.0859375 C 0.183594 -0.164062 0.140625 -0.261719 0.140625 -0.378906 Z "/>
</g>
<g id="glyph-0-4">
<path d="M 2.078125 -0.722656 L 2.078125 -0.457031 L 0.117188 -0.457031 L 0.117188 -0.722656 Z M 2.078125 -1.507812 L 2.078125 -1.242188 L 0.117188 -1.242188 L 0.117188 -1.507812 Z "/>
</g>
<g id="glyph-0-5">
<path d="M 0.929688 -0.0703125 C 1.117188 -0.0703125 1.246094 -0.171875 1.3125 -0.375 C 1.382812 -0.578125 1.417969 -0.875 1.417969 -1.261719 C 1.417969 -1.570312 1.398438 -1.8125 1.355469 -1.996094 C 1.277344 -2.339844 1.128906 -2.511719 0.914062 -2.511719 C 0.699219 -2.511719 0.550781 -2.335938 0.472656 -1.984375 C 0.429688 -1.796875 0.410156 -1.546875 0.410156 -1.242188 C 0.410156 -0.953125 0.433594 -0.726562 0.476562 -0.550781 C 0.554688 -0.230469 0.707031 -0.0703125 0.929688 -0.0703125 Z M 0.925781 -2.613281 C 1.214844 -2.613281 1.441406 -2.460938 1.601562 -2.15625 C 1.730469 -1.910156 1.792969 -1.625 1.792969 -1.304688 C 1.792969 -1.054688 1.753906 -0.816406 1.675781 -0.59375 C 1.527344 -0.175781 1.273438 0.0351562 0.90625 0.0351562 C 0.65625 0.0351562 0.453125 -0.078125 0.292969 -0.304688 C 0.121094 -0.546875 0.0351562 -0.875 0.0351562 -1.289062 C 0.0351562 -1.617188 0.0898438 -1.898438 0.207031 -2.132812 C 0.363281 -2.453125 0.601562 -2.613281 0.925781 -2.613281 Z "/>
</g>
<g id="glyph-0-6">
<path d="M 0.632812 0.046875 C 0.574219 0.046875 0.523438 0.0234375 0.480469 -0.0195312 C 0.4375 -0.0625 0.417969 -0.113281 0.417969 -0.171875 C 0.417969 -0.230469 0.4375 -0.28125 0.480469 -0.324219 C 0.523438 -0.363281 0.574219 -0.386719 0.632812 -0.386719 C 0.691406 -0.386719 0.746094 -0.363281 0.785156 -0.324219 C 0.828125 -0.28125 0.847656 -0.230469 0.847656 -0.171875 C 0.847656 -0.113281 0.828125 -0.0585938 0.789062 -0.0195312 C 0.746094 0.0234375 0.695312 0.046875 0.632812 0.046875 Z "/>
</g>
<g id="glyph-0-7">
<path d="M 0.300781 -0.332031 C 0.371094 -0.332031 0.464844 -0.292969 0.578125 -0.222656 C 0.691406 -0.148438 0.789062 -0.113281 0.871094 -0.113281 C 1.046875 -0.113281 1.179688 -0.171875 1.265625 -0.292969 C 1.351562 -0.414062 1.394531 -0.542969 1.394531 -0.683594 C 1.394531 -0.820312 1.359375 -0.9375 1.289062 -1.039062 C 1.171875 -1.214844 0.972656 -1.300781 0.691406 -1.300781 C 0.675781 -1.300781 0.660156 -1.300781 0.644531 -1.300781 C 0.628906 -1.300781 0.613281 -1.296875 0.59375 -1.296875 L 0.589844 -1.34375 C 0.792969 -1.417969 0.949219 -1.503906 1.066406 -1.597656 C 1.183594 -1.691406 1.242188 -1.816406 1.242188 -1.972656 C 1.242188 -2.109375 1.195312 -2.214844 1.105469 -2.289062 C 1.011719 -2.359375 0.90625 -2.398438 0.789062 -2.398438 C 0.652344 -2.398438 0.527344 -2.34375 0.421875 -2.242188 C 0.363281 -2.1875 0.300781 -2.101562 0.234375 -1.984375 L 0.175781 -1.996094 C 0.226562 -2.191406 0.320312 -2.34375 0.457031 -2.460938 C 0.59375 -2.574219 0.753906 -2.632812 0.9375 -2.632812 C 1.128906 -2.632812 1.28125 -2.578125 1.386719 -2.472656 C 1.492188 -2.367188 1.542969 -2.242188 1.542969 -2.105469 C 1.542969 -1.980469 1.5 -1.867188 1.414062 -1.765625 C 1.363281 -1.707031 1.285156 -1.644531 1.183594 -1.570312 C 1.304688 -1.519531 1.402344 -1.457031 1.476562 -1.386719 C 1.613281 -1.253906 1.683594 -1.085938 1.683594 -0.882812 C 1.683594 -0.640625 1.589844 -0.429688 1.398438 -0.246094 C 1.210938 -0.0625 0.941406 0.0273438 0.589844 0.0273438 C 0.433594 0.0273438 0.324219 0.00390625 0.261719 -0.0390625 C 0.199219 -0.0859375 0.167969 -0.136719 0.167969 -0.191406 C 0.167969 -0.222656 0.179688 -0.253906 0.199219 -0.285156 C 0.222656 -0.316406 0.253906 -0.332031 0.300781 -0.332031 Z "/>
</g>
</g>
</defs>
<g fill="rgb(96.862745%, 85.098039%, 43.529412%)" fill-opacity="1">
<use xlink:href="#glyph-0-0" x="30" y="22.916992"/>
<use xlink:href="#glyph-0-1" x="31" y="22.916992"/>
<use xlink:href="#glyph-0-2" x="33" y="22.916992"/>
<use xlink:href="#glyph-0-0" x="35" y="22.916992"/>
<use xlink:href="#glyph-0-3" x="36" y="22.916992"/>
<use xlink:href="#glyph-0-4" x="38" y="22.916992"/>
<use xlink:href="#glyph-0-5" x="40" y="22.916992"/>
<use xlink:href="#glyph-0-6" x="42" y="22.916992"/>
<use xlink:href="#glyph-0-7" x="43" y="22.916992"/>
<use xlink:href="#glyph-0-5" x="45" y="22.916992"/>
</g>
</svg>
