<?xml version="1.0" encoding="UTF-8"?>
<svg xmlns="http://www.w3.org/2000/svg" xmlns:xlink="http://www.w3.org/1999/xlink" width="854" height="480" viewBox="0 0 854 480">
<defs>
<g>
<g id="glyph-0-0">
<path d="M 0.125 -0.140625 C 0.441406 -0.164062 0.648438 -0.210938 0.742188 -0.28125 C 0.835938 -0.355469 0.882812 -0.542969 0.882812 -0.84375 L 0.882812 -4.300781 C 0.882812 -4.589844 0.835938 -4.773438 0.742188 -4.855469 C 0.648438 -4.9375 0.441406 -4.984375 0.125 -5 L 0.125 -5.144531 L 2.425781 -5.144531 L 2.425781 -5 C 2.109375 -4.984375 1.90625 -4.9375 1.8125 -4.855469 C 1.71875 -4.773438 1.671875 -4.589844 1.671875 -4.300781 L 1.671875 -0.84375 C 1.671875 -0.542969 1.71875 -0.355469 1.8125 -0.28125 C 1.90625 -0.210938 2.109375 -0.164062 2.425781 -0.140625 L 2.425781 0 L 0.125 0 Z "/>
</g>
<g id="glyph-0-1">
<rect x="0" y="0" width="0" height="0" mask="url(#mask-0)"/>
</g>
<g id="glyph-0-2">
<path d="M 4.160156 -1.445312 L 4.160156 -0.914062 L 0.230469 -0.914062 L 0.230469 -1.445312 Z M 4.160156 -3.015625 L 4.160156 -2.484375 L 0.230469 -2.484375 L 0.230469 -3.015625 Z "/>
</g>
<g id="glyph-0-3">
<path d="M 1.957031 -0.128906 C 2.246094 -0.128906 2.46875 -0.210938 2.617188 -0.371094 C 2.765625 -0.535156 2.839844 -0.738281 2.839844 -0.980469 C 2.839844 -1.257812 2.761719 -1.480469 2.601562 -1.648438 C 2.445312 -1.820312 2.121094 -2.078125 1.628906 -2.425781 C 1.410156 -2.289062 1.253906 -2.113281 1.15625 -1.894531 C 1.054688 -1.675781 1.007812 -1.46875 1.007812 -1.265625 C 1.007812 -0.917969 1.09375 -0.640625 1.273438 -0.4375 C 1.453125 -0.230469 1.679688 -0.128906 1.957031 -0.128906 Z M 2.003906 -3.03125 C 2.242188 -3.199219 2.40625 -3.339844 2.5 -3.453125 C 2.65625 -3.648438 2.734375 -3.882812 2.734375 -4.160156 C 2.734375 -4.398438 2.660156 -4.601562 2.511719 -4.773438 C 2.363281 -4.941406 2.140625 -5.023438 1.839844 -5.023438 C 1.605469 -5.023438 1.414062 -4.949219 1.261719 -4.804688 C 1.109375 -4.65625 1.03125 -4.480469 1.03125 -4.269531 C 1.03125 -4.03125 1.121094 -3.808594 1.300781 -3.605469 C 1.480469 -3.402344 1.714844 -3.210938 2.003906 -3.03125 Z M 1.421875 -2.589844 C 1.085938 -2.859375 0.859375 -3.070312 0.738281 -3.230469 C 0.550781 -3.472656 0.457031 -3.742188 0.457031 -4.035156 C 0.457031 -4.371094 0.59375 -4.65625 0.871094 -4.886719 C 1.148438 -5.121094 1.507812 -5.238281 1.953125 -5.238281 C 2.359375 -5.238281 2.683594 -5.125 2.925781 -4.90625 C 3.164062 -4.6875 3.285156 -4.429688 3.285156 -4.140625 C 3.285156 -3.84375 3.160156 -3.578125 2.917969 -3.34375 C 2.773438 -3.207031 2.546875 -3.054688 2.230469 -2.878906 C 2.660156 -2.558594 2.96875 -2.28125 3.152344 -2.046875 C 3.339844 -1.808594 3.433594 -1.527344 3.433594 -1.207031 C 3.433594 -0.84375 3.296875 -0.535156 3.019531 -0.289062 C 2.746094 -0.0390625 2.378906 0.0820312 1.917969 0.0820312 C 1.503906 0.0820312 1.152344 -0.03125 0.855469 -0.261719 C 0.5625 -0.488281 0.414062 -0.792969 0.414062 -1.164062 C 0.414062 -1.488281 0.515625 -1.769531 0.722656 -2.015625 C 0.855469 -2.175781 1.089844 -2.367188 1.421875 -2.589844 Z "/>
</g>
<g id="glyph-0-4">
<path d="M 1.859375 -0.140625 C 2.234375 -0.140625 2.488281 -0.34375 2.628906 -0.75 C 2.765625 -1.160156 2.835938 -1.75 2.835938 -2.523438 C 2.835938 -3.136719 2.796875 -3.628906 2.710938 -3.996094 C 2.554688 -4.679688 2.261719 -5.019531 1.832031 -5.019531 C 1.402344 -5.019531 1.105469 -4.667969 0.945312 -3.964844 C 0.863281 -3.589844 0.820312 -3.097656 0.820312 -2.484375 C 0.820312 -1.910156 0.863281 -1.449219 0.949219 -1.105469 C 1.113281 -0.460938 1.414062 -0.140625 1.859375 -0.140625 Z M 1.847656 -5.226562 C 2.429688 -5.226562 2.882812 -4.921875 3.207031 -4.308594 C 3.460938 -3.816406 3.589844 -3.25 3.589844 -2.609375 C 3.589844 -2.105469 3.511719 -1.628906 3.351562 -1.183594 C 3.054688 -0.347656 2.542969 0.0703125 1.816406 0.0703125 C 1.316406 0.0703125 0.90625 -0.15625 0.585938 -0.609375 C 0.242188 -1.089844 0.0664062 -1.75 0.0664062 -2.578125 C 0.0664062 -3.230469 0.183594 -3.792969 0.414062 -4.265625 C 0.726562 -4.90625 1.203125 -5.226562 1.847656 -5.226562 Z "/>
</g>
</g>
<image id="source-6" x="0" y="0" width="0" height="0"/>
<mask id="mask-0">
<use xlink:href="#source-6"/>
</mask>
</defs>
<g fill="rgb(96.862745%, 85.098039%, 43.529412%)" fill-opacity="1">
<use xlink:href="#glyph-0-0" x="30" y="25.833008"/>
<use xlink:href="#glyph-0-1" x="33" y="25.833008"/>
<use xlink:href="#glyph-0-2" x="35" y="25.833008"/>
<use xlink:href="#glyph-0-1" x="39" y="25.833008"/>
<use xlink:href="#glyph-0-3" x="41" y="25.833008"/>
<use xlink:href="#glyph-0-4" x="45" y="25.833008"/>
</g>
</svg>
