<?xml version="1.0" encoding="UTF-8"?>
<svg xmlns="http://www.w3.org/2000/svg" xmlns:xlink="http://www.w3.org/1999/xlink" width="854" height="480" viewBox="0 0 854 480">
<defs>
<g>
<g id="glyph-0-0">
<path d="M 1.15625 -0.140625 C 1.355469 -0.140625 1.523438 -0.179688 1.65625 -0.257812 C 1.789062 -0.335938 1.859375 -0.480469 1.859375 -0.699219 C 1.859375 -0.917969 1.777344 -1.066406 1.621094 -1.148438 C 1.464844 -1.226562 1.265625 -1.265625 1.023438 -1.265625 C 0.960938 -1.265625 0.925781 -1.265625 0.910156 -1.265625 C 0.894531 -1.265625 0.867188 -1.265625 0.835938 -1.269531 L 0.835938 -0.300781 C 0.835938 -0.234375 0.855469 -0.191406 0.894531 -0.171875 C 0.929688 -0.152344 1.019531 -0.140625 1.15625 -0.140625 Z M 0.0664062 -0.0703125 C 0.222656 -0.078125 0.324219 -0.101562 0.371094 -0.144531 C 0.417969 -0.183594 0.441406 -0.277344 0.441406 -0.421875 L 0.441406 -2.152344 C 0.441406 -2.296875 0.417969 -2.386719 0.371094 -2.429688 C 0.324219 -2.46875 0.222656 -2.492188 0.0664062 -2.5 L 0.0664062 -2.574219 L 1.15625 -2.574219 C 1.46875 -2.574219 1.714844 -2.523438 1.898438 -2.421875 C 2.082031 -2.324219 2.171875 -2.152344 2.171875 -1.90625 C 2.171875 -1.722656 2.109375 -1.582031 1.980469 -1.488281 C 1.910156 -1.433594 1.800781 -1.390625 1.65625 -1.355469 C 1.835938 -1.3125 1.988281 -1.238281 2.113281 -1.136719 C 2.242188 -1.039062 2.304688 -0.898438 2.304688 -0.714844 C 2.304688 -0.410156 2.164062 -0.203125 1.882812 -0.0898438 C 1.734375 -0.03125 1.550781 0 1.335938 0 L 0.0664062 0 Z M 1.207031 -1.421875 C 1.335938 -1.425781 1.445312 -1.445312 1.53125 -1.484375 C 1.695312 -1.5625 1.777344 -1.699219 1.777344 -1.894531 C 1.777344 -2.125 1.683594 -2.28125 1.492188 -2.363281 C 1.386719 -2.40625 1.226562 -2.429688 1.015625 -2.429688 C 0.933594 -2.429688 0.882812 -2.421875 0.863281 -2.410156 C 0.84375 -2.394531 0.835938 -2.355469 0.835938 -2.292969 L 0.835938 -1.417969 Z "/>
</g>
<g id="glyph-0-1">
<path d="M 2.078125 -0.722656 L 2.078125 -0.457031 L 0.117188 -0.457031 L 0.117188 -0.722656 Z M 2.078125 -1.507812 L 2.078125 -1.242188 L 0.117188 -1.242188 L 0.117188 -1.507812 Z "/>
</g>
<g id="glyph-0-2">
<path d="M 1.152344 -2.609375 C 1.15625 -2.601562 1.160156 -2.597656 1.160156 -2.59375 C 1.160156 -2.589844 1.160156 -2.585938 1.160156 -2.574219 L 1.160156 -0.285156 C 1.160156 -0.1875 1.1875 -0.128906 1.238281 -0.101562 C 1.289062 -0.0742188 1.386719 -0.0585938 1.527344 -0.0546875 L 1.527344 0 L 0.457031 0 L 0.457031 -0.0585938 C 0.609375 -0.0664062 0.710938 -0.0859375 0.757812 -0.121094 C 0.804688 -0.15625 0.828125 -0.226562 0.828125 -0.34375 L 0.828125 -2.101562 C 0.828125 -2.160156 0.820312 -2.207031 0.804688 -2.238281 C 0.789062 -2.269531 0.757812 -2.285156 0.707031 -2.285156 C 0.671875 -2.285156 0.632812 -2.277344 0.578125 -2.257812 C 0.527344 -2.242188 0.476562 -2.222656 0.429688 -2.203125 L 0.429688 -2.253906 L 1.128906 -2.609375 Z "/>
</g>
<g id="glyph-0-3">
<path d="M 0.929688 -0.0703125 C 1.117188 -0.0703125 1.246094 -0.171875 1.3125 -0.375 C 1.382812 -0.578125 1.417969 -0.875 1.417969 -1.261719 C 1.417969 -1.570312 1.398438 -1.8125 1.355469 -1.996094 C 1.277344 -2.339844 1.128906 -2.511719 0.914062 -2.511719 C 0.699219 -2.511719 0.550781 -2.335938 0.472656 -1.984375 C 0.429688 -1.796875 0.410156 -1.546875 0.410156 -1.242188 C 0.410156 -0.953125 0.433594 -0.726562 0.476562 -0.550781 C 0.554688 -0.230469 0.707031 -0.0703125 0.929688 -0.0703125 Z M 0.925781 -2.613281 C 1.214844 -2.613281 1.441406 -2.460938 1.601562 -2.15625 C 1.730469 -1.910156 1.792969 -1.625 1.792969 -1.304688 C 1.792969 -1.054688 1.753906 -0.816406 1.675781 -0.59375 C 1.527344 -0.175781 1.273438 0.0351562 0.90625 0.0351562 C 0.65625 0.0351562 0.453125 -0.078125 0.292969 -0.304688 C 0.121094 -0.546875 0.0351562 -0.875 0.0351562 -1.289062 C 0.0351562 -1.617188 0.0898438 -1.898438 0.207031 -2.132812 C 0.363281 -2.453125 0.601562 -2.613281 0.925781 -2.613281 Z "/>
</g>
</g>
</defs>
<g fill="rgb(98.823529%, 38.431373%, 33.333333%)" fill-opacity="1">
<use xlink:href="#glyph-0-0" x="30" y="22.916992"/>
<use xlink:href="#glyph-0-1" x="33" y="22.916992"/>
<use xlink:href="#glyph-0-2" x="35" y="22.916992"/>
<use xlink:href="#glyph-0-3" x="37" y="22.916992"/>
</g>
</svg>
