<?xml version="1.0" encoding="UTF-8"?>
<svg xmlns="http://www.w3.org/2000/svg" xmlns:xlink="http://www.w3.org/1999/xlink" width="854" height="480" viewBox="0 0 854 480">
<defs>
<g>
<g id="glyph-0-0">
<path d="M 0.0976562 -0.0390625 C 0.496094 -0.449219 0.765625 -0.753906 0.90625 -0.945312 C 1.050781 -1.136719 1.121094 -1.328125 1.121094 -1.511719 C 1.121094 -1.671875 1.078125 -1.792969 0.992188 -1.878906 C 0.90625 -1.960938 0.800781 -2.003906 0.679688 -2.003906 C 0.53125 -2.003906 0.410156 -1.949219 0.320312 -1.839844 C 0.269531 -1.78125 0.21875 -1.6875 0.171875 -1.566406 L 0.101562 -1.582031 C 0.15625 -1.832031 0.25 -2.003906 0.378906 -2.101562 C 0.507812 -2.199219 0.648438 -2.246094 0.796875 -2.246094 C 0.980469 -2.246094 1.128906 -2.1875 1.242188 -2.074219 C 1.355469 -1.957031 1.410156 -1.816406 1.410156 -1.648438 C 1.410156 -1.46875 1.351562 -1.300781 1.226562 -1.132812 C 1.105469 -0.96875 0.839844 -0.675781 0.429688 -0.253906 L 1.175781 -0.253906 C 1.28125 -0.253906 1.351562 -0.265625 1.394531 -0.292969 C 1.4375 -0.316406 1.484375 -0.378906 1.539062 -0.472656 L 1.582031 -0.453125 L 1.398438 0 L 0.0976562 0 Z "/>
</g>
<g id="glyph-0-1">
<path d="M 0.796875 -0.0585938 C 0.957031 -0.0585938 1.066406 -0.148438 1.125 -0.320312 C 1.183594 -0.496094 1.214844 -0.75 1.214844 -1.082031 C 1.214844 -1.34375 1.199219 -1.554688 1.160156 -1.710938 C 1.09375 -2.003906 0.96875 -2.152344 0.785156 -2.152344 C 0.601562 -2.152344 0.472656 -2 0.40625 -1.699219 C 0.371094 -1.539062 0.351562 -1.328125 0.351562 -1.0625 C 0.351562 -0.816406 0.371094 -0.621094 0.40625 -0.472656 C 0.476562 -0.199219 0.605469 -0.0585938 0.796875 -0.0585938 Z M 0.792969 -2.238281 C 1.042969 -2.238281 1.234375 -2.109375 1.375 -1.847656 C 1.484375 -1.636719 1.539062 -1.390625 1.539062 -1.117188 C 1.539062 -0.902344 1.503906 -0.699219 1.4375 -0.507812 C 1.308594 -0.148438 1.089844 0.03125 0.777344 0.03125 C 0.5625 0.03125 0.386719 -0.0664062 0.25 -0.261719 C 0.101562 -0.46875 0.0273438 -0.75 0.0273438 -1.105469 C 0.0273438 -1.386719 0.078125 -1.625 0.175781 -1.828125 C 0.308594 -2.101562 0.515625 -2.238281 0.792969 -2.238281 Z "/>
</g>
</g>
</defs>
<g fill="rgb(73.333333%, 73.333333%, 73.333333%)" fill-opacity="1">
<use xlink:href="#glyph-0-0" x="30" y="22.5"/>
<use xlink:href="#glyph-0-1" x="32" y="22.5"/>
</g>
</svg>
